<?xml version="1.0" encoding="utf-8"?>
<!-- Generator: Adobe Illustrator 16.0.0, SVG Export Plug-In . SVG Version: 6.00 Build 0)  -->
<!DOCTYPE svg PUBLIC "-//W3C//DTD SVG 1.1//EN" "http://www.w3.org/Graphics/SVG/1.1/DTD/svg11.dtd">
<svg version="1.1" id="Layer_1" xmlns="http://www.w3.org/2000/svg" xmlns:xlink="http://www.w3.org/1999/xlink" x="0px" y="0px"
	 width="370.359px" height="84.626px" viewBox="0 0 370.359 84.626" enable-background="new 0 0 370.359 84.626"
	 xml:space="preserve">
<g>
	<defs>
		<rect id="SVGID_1_" y="-0.736" width="370.359" height="84.626"/>
	</defs>
	<clipPath id="SVGID_2_">
		<use xlink:href="#SVGID_1_"  overflow="visible"/>
	</clipPath>
	<path clip-path="url(#SVGID_2_)" fill="#FFFFFF" d="M351.309,32.16h11.406v-0.639h-3.969V21.073c0-1.277,0.16-2.41,0.479-3.398
		c0.319-0.988,0.715-1.832,1.187-2.532c0.471-0.699,0.98-1.232,1.529-1.598c0.547-0.364,1.063-0.548,1.551-0.548
		c1.063,0,1.597,0.487,1.597,1.461c0,0.396-0.031,0.7-0.092,0.912c-0.062,0.213-0.129,0.403-0.205,0.57
		c-0.076,0.168-0.145,0.335-0.205,0.502c-0.061,0.168-0.091,0.388-0.091,0.662c0,0.852,0.668,1.276,2.007,1.276
		c0.608,0,1.141-0.167,1.597-0.502c0.456-0.334,0.685-1.003,0.685-2.007c0-0.456-0.076-0.913-0.229-1.369
		c-0.151-0.456-0.395-0.858-0.729-1.209c-0.335-0.349-0.76-0.639-1.277-0.866c-0.518-0.229-1.126-0.343-1.825-0.343
		c-0.974,0-1.802,0.183-2.486,0.549c-0.685,0.363-1.271,0.813-1.756,1.345c-0.487,0.533-0.867,1.088-1.142,1.666
		c-0.273,0.578-0.472,1.095-0.593,1.551h-0.091v-4.608h-7.347v0.64h3.514v18.295h-3.514V32.16z M347.066,20.845
		c0-1.673-0.282-3.072-0.845-4.197s-1.263-2.031-2.099-2.715c-0.837-0.686-1.742-1.18-2.715-1.483
		c-0.974-0.304-1.886-0.456-2.737-0.456c-1.43,0-2.768,0.296-4.015,0.89c-1.248,0.594-2.335,1.377-3.263,2.35
		c-0.929,0.974-1.658,2.092-2.189,3.354c-0.533,1.263-0.799,2.562-0.799,3.9c0,1.552,0.258,2.959,0.775,4.221
		c0.518,1.263,1.247,2.351,2.19,3.263c0.941,0.913,2.06,1.612,3.353,2.099s2.699,0.73,4.222,0.73c1.52,0,2.76-0.236,3.718-0.707
		c0.958-0.473,1.718-1.02,2.281-1.644c0.562-0.623,0.973-1.247,1.231-1.871c0.258-0.623,0.435-1.102,0.525-1.437l-0.686-0.138
		c-0.121,0.365-0.304,0.838-0.547,1.415c-0.244,0.578-0.616,1.148-1.118,1.711c-0.502,0.563-1.186,1.042-2.053,1.438
		s-1.97,0.593-3.308,0.593c-1.339,0-2.411-0.289-3.216-0.867c-0.808-0.576-1.415-1.307-1.825-2.189
		c-0.411-0.882-0.678-1.871-0.799-2.966c-0.122-1.096-0.183-2.145-0.183-3.148c0-0.486,0.007-0.889,0.023-1.209
		c0.014-0.319,0.021-0.631,0.021-0.935H347.066z M333.059,20.206c0.062-1.004,0.19-1.962,0.389-2.874
		c0.196-0.913,0.494-1.718,0.889-2.418c0.396-0.7,0.928-1.255,1.597-1.666c0.669-0.41,1.521-0.614,2.556-0.614
		c0.578,0,1.118,0.084,1.62,0.25c0.502,0.168,0.928,0.449,1.277,0.845c0.35,0.395,0.623,0.928,0.821,1.596
		c0.197,0.67,0.296,1.522,0.296,2.555v1.142c0,0.365-0.03,0.761-0.091,1.186H333.059z M287.57,32.16h10.951v-0.639h-3.514V21.392
		c0-1.581,0.221-2.92,0.661-4.016c0.44-1.095,0.989-1.983,1.644-2.669c0.653-0.684,1.36-1.186,2.121-1.505
		c0.76-0.319,1.46-0.479,2.099-0.479c0.913,0,1.643,0.318,2.189,0.958c0.548,0.639,0.822,1.627,0.822,2.966v14.873h-3.514v0.639
		h10.95v-0.639h-3.514V19.887c0-1.217,0.19-2.281,0.571-3.194c0.38-0.912,0.874-1.657,1.481-2.235
		c0.609-0.578,1.293-1.011,2.055-1.301c0.759-0.289,1.52-0.433,2.281-0.433c0.973,0,1.74,0.289,2.304,0.867
		c0.562,0.577,0.844,1.384,0.844,2.418v15.512h-3.513v0.639h10.95v-0.639h-3.514V18.883c0-4.532-2.221-6.799-6.662-6.799
		c-0.942,0-1.787,0.122-2.531,0.365c-0.745,0.244-1.392,0.57-1.939,0.981c-0.547,0.411-1.004,0.875-1.369,1.392
		s-0.653,1.049-0.866,1.596h-0.092c-0.365-1.551-1.133-2.66-2.304-3.33c-1.171-0.669-2.517-1.004-4.038-1.004
		c-1.703,0-3.156,0.427-4.357,1.277c-1.201,0.852-2.121,2.191-2.76,4.015h-0.091v-4.79h-7.347v0.64h3.514v18.295h-3.514V32.16z
		 M263.344,26.434c0.608,1.263,1.407,2.365,2.396,3.308c0.988,0.943,2.121,1.688,3.398,2.236c1.277,0.547,2.586,0.821,3.924,0.821
		s2.646-0.274,3.924-0.821c1.277-0.548,2.41-1.293,3.398-2.236c0.988-0.942,1.787-2.045,2.395-3.308
		c0.609-1.263,0.914-2.608,0.914-4.038c0-1.49-0.327-2.874-0.981-4.152c-0.653-1.276-1.491-2.379-2.509-3.307
		c-1.02-0.928-2.16-1.65-3.422-2.168c-1.264-0.517-2.502-0.775-3.719-0.775s-2.457,0.259-3.719,0.775
		c-1.263,0.518-2.402,1.24-3.422,2.168s-1.855,2.03-2.509,3.307c-0.655,1.278-0.981,2.662-0.981,4.152
		C262.432,23.826,262.734,25.171,263.344,26.434 M267.359,17.811c0.242-1.232,0.615-2.236,1.117-3.011
		c0.502-0.776,1.133-1.331,1.894-1.666c0.76-0.334,1.657-0.501,2.692-0.501c1.033,0,1.932,0.167,2.691,0.501
		c0.76,0.335,1.393,0.89,1.895,1.666c0.502,0.774,0.873,1.778,1.117,3.011c0.243,1.231,0.364,2.76,0.364,4.585
		c0,2.16-0.167,3.878-0.501,5.156c-0.335,1.276-0.775,2.258-1.324,2.942c-0.547,0.685-1.186,1.133-1.916,1.347
		c-0.729,0.213-1.505,0.318-2.326,0.318s-1.598-0.105-2.328-0.318c-0.729-0.214-1.367-0.662-1.916-1.347
		c-0.547-0.685-0.988-1.666-1.322-2.942c-0.335-1.278-0.502-2.996-0.502-5.156C266.994,20.571,267.115,19.042,267.359,17.811
		 M237.064,26.434c0.607,1.263,1.406,2.365,2.396,3.308c0.988,0.943,2.121,1.688,3.399,2.236c1.277,0.547,2.584,0.821,3.923,0.821
		c1.338,0,2.647-0.274,3.924-0.821c1.278-0.548,2.41-1.293,3.399-2.236c0.987-0.942,1.787-2.045,2.395-3.308
		c0.609-1.263,0.913-2.608,0.913-4.038c0-1.49-0.327-2.874-0.981-4.152c-0.654-1.276-1.49-2.379-2.509-3.307
		c-1.021-0.928-2.159-1.65-3.422-2.168c-1.263-0.517-2.502-0.775-3.719-0.775c-1.218,0-2.456,0.259-3.718,0.775
		c-1.264,0.518-2.403,1.24-3.422,2.168c-1.02,0.928-1.856,2.03-2.51,3.307c-0.654,1.278-0.98,2.662-0.98,4.152
		C236.152,23.826,236.455,25.171,237.064,26.434 M241.079,17.811c0.243-1.232,0.616-2.236,1.118-3.011
		c0.502-0.776,1.133-1.331,1.893-1.666c0.76-0.334,1.658-0.501,2.692-0.501s1.932,0.167,2.692,0.501
		c0.76,0.335,1.392,0.89,1.894,1.666c0.502,0.774,0.874,1.778,1.116,3.011c0.244,1.231,0.365,2.76,0.365,4.585
		c0,2.16-0.166,3.878-0.5,5.156c-0.336,1.276-0.776,2.258-1.324,2.942c-0.547,0.685-1.187,1.133-1.916,1.347
		c-0.73,0.213-1.506,0.318-2.327,0.318s-1.597-0.105-2.327-0.318c-0.73-0.214-1.368-0.662-1.916-1.347
		c-0.547-0.685-0.989-1.666-1.323-2.942c-0.335-1.278-0.502-2.996-0.502-5.156C240.714,20.571,240.835,19.042,241.079,17.811
		 M222.328,32.16h10.949v-0.639h-3.512V-0.736h-7.438v0.639h3.513v31.618h-3.513V32.16z M191.988,32.16h7.984
		c0.547,0,1.063,0.007,1.551,0.023c0.485,0.015,0.957,0.038,1.414,0.067c0.457,0.03,0.89,0.054,1.301,0.069
		c0.41,0.015,0.828,0.022,1.255,0.022c2.098,0,3.938-0.235,5.521-0.707c1.58-0.472,2.889-1.118,3.924-1.939
		c1.033-0.821,1.809-1.802,2.326-2.943c0.518-1.14,0.775-2.395,0.775-3.764c0-1.307-0.289-2.463-0.866-3.467
		c-0.579-1.004-1.331-1.848-2.259-2.532s-1.962-1.217-3.102-1.597c-1.142-0.38-2.26-0.616-3.354-0.707v-0.092
		c1.065-0.121,2.083-0.381,3.058-0.775c0.973-0.395,1.832-0.913,2.577-1.552s1.339-1.383,1.779-2.235
		c0.44-0.851,0.662-1.78,0.662-2.783c0-0.729-0.153-1.544-0.456-2.44c-0.305-0.897-0.867-1.734-1.689-2.511
		c-0.82-0.774-1.945-1.429-3.375-1.961c-1.431-0.531-3.256-0.799-5.476-0.799c-0.427,0-0.867,0.008-1.323,0.023
		s-0.928,0.022-1.414,0.022c-0.486,0.03-0.966,0.054-1.438,0.068c-0.471,0.016-0.936,0.023-1.391,0.023h-7.984v0.639h5.063v31.207
		h-5.063V32.16z M201.613,15.051h5.02c2.038,0,3.574,0.699,4.608,2.098c1.034,1.4,1.552,3.315,1.552,5.749
		c0,1.704-0.152,3.118-0.457,4.243c-0.304,1.126-0.783,2.03-1.438,2.715c-0.653,0.684-1.49,1.163-2.508,1.437
		c-1.021,0.274-2.244,0.411-3.674,0.411c-0.82,0-1.453-0.022-1.893-0.068c-0.442-0.046-0.846-0.083-1.211-0.114V15.051z
		 M201.613,0.314c0.396-0.062,0.875-0.1,1.438-0.114c0.562-0.015,1.117-0.022,1.665-0.022c0.791,0,1.59,0.075,2.395,0.228
		c0.807,0.153,1.537,0.472,2.19,0.958c0.654,0.487,1.187,1.209,1.597,2.167c0.412,0.958,0.617,2.229,0.617,3.81
		c0,1.399-0.138,2.556-0.412,3.468c-0.272,0.913-0.66,1.636-1.162,2.168s-1.104,0.904-1.803,1.117
		c-0.699,0.214-1.476,0.319-2.326,0.319h-4.199V0.314z M149.374,32.16h10.95v-0.639h-3.513V21.209c0-1.216,0.19-2.342,0.57-3.376
		c0.38-1.033,0.905-1.931,1.574-2.691c0.669-0.76,1.445-1.354,2.327-1.78c0.882-0.425,1.81-0.638,2.783-0.638
		c1.187,0,2.061,0.38,2.624,1.14c0.562,0.761,0.844,1.734,0.844,2.92v14.737h-3.513v0.639h10.95v-0.639h-3.513V18.199
		c0-2.129-0.632-3.68-1.894-4.654c-1.262-0.973-2.897-1.46-4.904-1.46c-1.309,0-2.419,0.205-3.331,0.616
		c-0.913,0.411-1.673,0.905-2.281,1.483c-0.609,0.578-1.088,1.171-1.438,1.778c-0.35,0.609-0.615,1.111-0.798,1.507h-0.091v-4.883
		h-7.346v0.64h3.513v18.295h-3.513V32.16z M123.323,13.226h3.148l7.893,19.526l-2.007,5.11c-0.487,1.216-0.929,2.243-1.324,3.08
		c-0.395,0.836-0.791,1.513-1.186,2.03c-0.395,0.517-0.798,0.89-1.209,1.118c-0.41,0.228-0.86,0.342-1.346,0.342
		c-0.365,0-0.654-0.062-0.867-0.183c-0.213-0.122-0.319-0.381-0.319-0.775c0-0.456,0.129-0.875,0.388-1.255
		c0.258-0.381,0.388-0.783,0.388-1.209c0-0.305-0.077-0.563-0.229-0.775c-0.152-0.214-0.335-0.381-0.547-0.502
		c-0.213-0.122-0.441-0.206-0.684-0.251c-0.244-0.046-0.472-0.069-0.685-0.069c-0.609,0-1.125,0.19-1.551,0.571
		c-0.426,0.38-0.639,0.95-0.639,1.711c0,0.273,0.046,0.608,0.137,1.003c0.091,0.396,0.29,0.776,0.593,1.141
		c0.304,0.365,0.722,0.685,1.255,0.958c0.532,0.274,1.239,0.411,2.121,0.411c0.73,0,1.369-0.13,1.917-0.388
		c0.547-0.259,1.056-0.646,1.528-1.164c0.471-0.517,0.92-1.186,1.346-2.007c0.426-0.821,0.851-1.779,1.278-2.874
		c0.516-1.339,1.033-2.669,1.551-3.993c0.517-1.323,1.064-2.638,1.642-3.946l7.528-17.61h2.464v-0.64h-6.98v0.64h3.786
		l-6.159,14.326l-5.886-14.326h3.833v-0.64h-11.178V13.226z M102.564,32.16h11.406v-0.639H110V21.073c0-1.277,0.16-2.41,0.48-3.398
		c0.319-0.988,0.714-1.832,1.186-2.532c0.471-0.699,0.981-1.232,1.528-1.598c0.548-0.364,1.065-0.548,1.551-0.548
		c1.065,0,1.597,0.487,1.597,1.461c0,0.396-0.03,0.7-0.091,0.912c-0.061,0.213-0.13,0.403-0.205,0.57
		c-0.076,0.168-0.145,0.335-0.206,0.502c-0.061,0.168-0.091,0.388-0.091,0.662c0,0.852,0.669,1.276,2.008,1.276
		c0.608,0,1.14-0.167,1.597-0.502c0.456-0.334,0.684-1.003,0.684-2.007c0-0.456-0.076-0.913-0.228-1.369
		c-0.153-0.456-0.396-0.858-0.73-1.209c-0.335-0.349-0.761-0.639-1.278-0.866c-0.517-0.229-1.125-0.343-1.825-0.343
		c-0.973,0-1.802,0.183-2.486,0.549c-0.685,0.363-1.271,0.813-1.757,1.345c-0.487,0.533-0.867,1.088-1.14,1.666
		c-0.274,0.578-0.472,1.095-0.594,1.551h-0.091v-4.608h-7.345v0.64h3.513v18.295h-3.513V32.16z M73.683,32.16h10.95v-0.639H81.12
		V21.209c0-1.216,0.19-2.342,0.571-3.376c0.379-1.033,0.904-1.931,1.574-2.691c0.668-0.76,1.444-1.354,2.326-1.78
		c0.882-0.425,1.81-0.638,2.784-0.638c1.186,0,2.06,0.38,2.623,1.14c0.562,0.761,0.844,1.734,0.844,2.92v14.737h-3.513v0.639h10.95
		v-0.639h-3.513V18.199c0-2.129-0.632-3.68-1.894-4.654c-1.262-0.973-2.897-1.46-4.904-1.46c-1.248,0-2.32,0.19-3.217,0.57
		c-0.897,0.381-1.658,0.837-2.281,1.369c-0.624,0.533-1.118,1.095-1.483,1.688c-0.365,0.594-0.624,1.089-0.776,1.483H81.12V-0.736
		h-7.437v0.639h3.513v31.618h-3.513V32.16z M56.301,13.226h3.513v14.508c0,1.613,0.448,2.86,1.346,3.742
		c0.896,0.881,2.486,1.323,4.767,1.323c0.913,0,1.673-0.146,2.282-0.435c0.608-0.288,1.102-0.653,1.482-1.095
		c0.38-0.44,0.662-0.904,0.845-1.392c0.182-0.485,0.319-0.928,0.41-1.322l-0.639-0.229c-0.182,1.004-0.601,1.895-1.254,2.67
		c-0.655,0.775-1.514,1.163-2.578,1.163c-0.304,0-0.616-0.046-0.935-0.137c-0.32-0.091-0.616-0.281-0.89-0.57
		s-0.495-0.7-0.662-1.231c-0.167-0.532-0.251-1.225-0.251-2.076V13.226h6.479v-0.64h-6.479V6.335
		c-0.304,0.244-0.623,0.419-0.958,0.525c-0.335,0.107-0.73,0.16-1.186,0.16c-0.518,0-0.883-0.03-1.095-0.092
		c-0.213-0.061-0.441-0.138-0.684-0.229v5.886h-3.513V13.226z M55.48,31.156c-0.335,0.244-0.685,0.427-1.05,0.548
		c-0.365,0.122-0.715,0.183-1.049,0.183c-0.517,0-0.912-0.152-1.186-0.456c-0.274-0.305-0.411-0.897-0.411-1.779V18.29
		c0-0.82-0.122-1.604-0.365-2.35c-0.244-0.745-0.654-1.414-1.232-2.007c-0.578-0.594-1.338-1.065-2.281-1.415
		c-0.943-0.35-2.114-0.524-3.513-0.524c-1.156,0-2.183,0.137-3.08,0.41c-0.897,0.274-1.642,0.647-2.235,1.118
		c-0.593,0.472-1.043,1.012-1.346,1.62c-0.305,0.608-0.457,1.247-0.457,1.916c0,0.578,0.122,1.049,0.365,1.414
		c0.244,0.365,0.867,0.548,1.871,0.548c0.578,0,1.019-0.145,1.323-0.434s0.456-0.646,0.456-1.072c0-0.243-0.045-0.616-0.136-1.117
		c-0.092-0.502-0.137-1.011-0.137-1.529c0-0.79,0.326-1.36,0.981-1.711c0.653-0.349,1.482-0.523,2.486-0.523
		c0.76,0,1.369,0.105,1.825,0.318s0.806,0.525,1.05,0.936c0.243,0.41,0.41,0.905,0.501,1.482c0.092,0.578,0.137,1.232,0.137,1.962
		c0,0.912-0.068,1.636-0.205,2.167c-0.137,0.533-0.388,0.975-0.753,1.323c-0.365,0.35-0.874,0.647-1.528,0.89
		c-0.655,0.244-1.483,0.532-2.487,0.867c-0.852,0.274-1.696,0.532-2.532,0.775c-0.837,0.244-1.597,0.556-2.281,0.936
		c-0.685,0.38-1.24,0.89-1.666,1.528c-0.426,0.639-0.638,1.491-0.638,2.555c0,0.456,0.068,0.951,0.205,1.483
		c0.137,0.532,0.418,1.012,0.844,1.437c0.426,0.427,1.019,0.784,1.779,1.072c0.76,0.289,1.78,0.435,3.057,0.435
		c1.125,0,2.053-0.131,2.783-0.389s1.316-0.578,1.757-0.958s0.768-0.775,0.981-1.186c0.212-0.411,0.38-0.753,0.502-1.027h0.091
		c0.243,1.126,0.692,2,1.346,2.623c0.654,0.624,1.711,0.937,3.171,0.937c0.791,0,1.46-0.114,2.007-0.343
		c0.548-0.229,1.019-0.494,1.415-0.799L55.48,31.156z M47.86,25.543c0,0.609-0.053,1.286-0.159,2.031
		c-0.107,0.745-0.32,1.438-0.639,2.076c-0.319,0.638-0.791,1.171-1.414,1.596c-0.624,0.428-1.438,0.64-2.441,0.64
		c-0.7,0-1.271-0.121-1.711-0.365c-0.441-0.243-0.784-0.554-1.027-0.936c-0.244-0.38-0.41-0.812-0.502-1.3
		c-0.091-0.486-0.137-0.959-0.137-1.415c0-1.063,0.259-1.954,0.776-2.669c0.517-0.714,1.262-1.269,2.236-1.665l3.422-1.369
		c0.942-0.395,1.444-0.79,1.505-1.186h0.091V25.543z M0,32.16h14.326v-0.639H9.627V15.46h0.365l13.687,16.061h-4.106v0.639h13.186
		v-0.639h-3.012L13.186,12.586L24.774,0.314h3.787v-0.639h-9.444v0.639h4.745L10.083,14.823H9.627V0.314h4.699v-0.639H0v0.639h5.064
		v31.207H0V32.16z"/>
	<path clip-path="url(#SVGID_2_)" fill="#FFFFFF" d="M369.928,52.388c-0.83-1.117-2.059-2.082-3.687-2.896
		c-1.627-0.813-3.59-1.221-5.889-1.221c-1.244,0-2.506,0.176-3.781,0.527c-1.277,0.351-2.442,0.909-3.495,1.675
		s-1.908,1.74-2.562,2.921c-0.654,1.181-0.981,2.585-0.981,4.213c0,1.532,0.263,2.824,0.79,3.877
		c0.526,1.055,1.221,1.939,2.083,2.658c0.86,0.718,1.835,1.3,2.92,1.747s2.186,0.846,3.303,1.197
		c1.085,0.351,2.123,0.702,3.112,1.053c0.989,0.352,1.867,0.79,2.633,1.317c0.766,0.525,1.38,1.181,1.844,1.963
		c0.462,0.781,0.694,1.763,0.694,2.943c0,1.085-0.232,2.035-0.694,2.849c-0.464,0.813-1.054,1.501-1.771,2.059
		c-0.719,0.56-1.524,0.974-2.418,1.245s-1.771,0.407-2.634,0.407c-1.786,0-3.343-0.407-4.667-1.222
		c-1.324-0.813-2.354-1.826-3.088-3.039l-2.969,2.201c0.606,0.83,1.31,1.564,2.107,2.202c0.797,0.64,1.659,1.166,2.585,1.58
		c0.925,0.415,1.898,0.727,2.92,0.935c1.021,0.207,2.043,0.311,3.063,0.311c1.341,0,2.673-0.191,3.998-0.575
		c1.324-0.383,2.501-0.973,3.532-1.771c1.03-0.797,1.868-1.812,2.514-3.04s0.969-2.688,0.969-4.381c0-1.691-0.304-3.087-0.908-4.189
		c-0.604-1.101-1.384-2.01-2.339-2.728c-0.955-0.72-2.029-1.302-3.224-1.748c-1.193-0.446-2.379-0.862-3.556-1.245
		c-0.956-0.318-1.87-0.639-2.746-0.957c-0.875-0.319-1.655-0.727-2.34-1.222c-0.685-0.493-1.233-1.093-1.647-1.795
		c-0.412-0.701-0.619-1.596-0.619-2.681s0.216-2.027,0.646-2.825c0.431-0.797,0.998-1.46,1.7-1.986s1.483-0.917,2.346-1.174
		c0.862-0.255,1.707-0.383,2.537-0.383c1.628,0,3.016,0.312,4.165,0.935s2.09,1.443,2.825,2.466L369.928,52.388z M308.792,52.101
		h6.128c1.276,0,2.441,0.112,3.494,0.335c1.054,0.224,1.947,0.575,2.681,1.053c0.734,0.479,1.31,1.103,1.725,1.867
		c0.414,0.767,0.622,1.708,0.622,2.825c0,2.011-0.75,3.519-2.25,4.524s-3.639,1.508-6.415,1.508h-5.984V52.101z M308.792,67.182
		h5.745l9.383,15.846h4.213l-9.91-16.134c1.245-0.127,2.395-0.414,3.447-0.861c1.053-0.446,1.963-1.045,2.729-1.796
		c0.766-0.749,1.372-1.635,1.818-2.656c0.447-1.021,0.67-2.154,0.67-3.399c0-1.659-0.287-3.064-0.86-4.213
		c-0.575-1.149-1.381-2.082-2.418-2.801c-1.038-0.719-2.268-1.236-3.688-1.557c-1.42-0.317-2.96-0.478-4.619-0.478h-9.958v33.895
		h3.447V67.182z M276.811,71.746c-0.638,1.784-1.563,3.346-2.775,4.684c-1.215,1.338-2.689,2.406-4.43,3.202
		c-1.739,0.797-3.693,1.194-5.863,1.194c-2.172,0-4.126-0.397-5.865-1.194c-1.74-0.796-3.216-1.864-4.429-3.202
		c-1.214-1.338-2.138-2.899-2.776-4.684s-0.958-3.664-0.958-5.642c0-1.975,0.319-3.854,0.958-5.64
		c0.639-1.784,1.562-3.354,2.776-4.707c1.213-1.354,2.688-2.431,4.429-3.228c1.739-0.796,3.693-1.194,5.865-1.194
		c2.17,0,4.124,0.398,5.863,1.194c1.74,0.797,3.215,1.873,4.43,3.228c1.212,1.354,2.138,2.923,2.775,4.707
		c0.64,1.785,0.959,3.665,0.959,5.64C277.77,68.082,277.45,69.961,276.811,71.746 M280.066,58.947
		c-0.894-2.17-2.129-4.045-3.709-5.625s-3.447-2.816-5.603-3.711c-2.153-0.893-4.491-1.34-7.013-1.34s-4.86,0.447-7.014,1.34
		c-2.154,0.895-4.022,2.131-5.602,3.711c-1.58,1.58-2.818,3.455-3.711,5.625c-0.895,2.171-1.34,4.549-1.34,7.134
		c0,2.586,0.445,4.964,1.34,7.134c0.893,2.171,2.131,4.045,3.711,5.625c1.579,1.58,3.447,2.816,5.602,3.711
		c2.153,0.893,4.492,1.34,7.014,1.34s4.859-0.447,7.013-1.34c2.155-0.895,4.022-2.131,5.603-3.711s2.815-3.454,3.709-5.625
		c0.894-2.17,1.341-4.548,1.341-7.134C281.407,63.496,280.96,61.118,280.066,58.947 M222.139,49.133h-3.447v33.895h3.447V49.133z
		 M176.705,52.101h6.128c1.276,0,2.442,0.112,3.495,0.335c1.053,0.224,1.945,0.575,2.681,1.053c0.734,0.479,1.308,1.103,1.724,1.867
		c0.414,0.767,0.623,1.708,0.623,2.825c0,2.011-0.75,3.519-2.25,4.524c-1.502,1.006-3.64,1.508-6.416,1.508h-5.985V52.101z
		 M176.705,67.182h5.745l9.384,15.846h4.213l-9.91-16.134c1.244-0.127,2.392-0.414,3.447-0.861c1.053-0.446,1.962-1.045,2.729-1.796
		c0.766-0.749,1.371-1.635,1.819-2.656c0.446-1.021,0.67-2.154,0.67-3.399c0-1.659-0.286-3.064-0.862-4.213
		c-0.573-1.149-1.381-2.082-2.418-2.801s-2.266-1.236-3.686-1.557c-1.42-0.317-2.961-0.478-4.62-0.478h-9.958v33.895h3.447V67.182z
		 M131.607,66.894h16.421v-3.063h-16.421V52.197h17.57v-3.063H128.16v33.895h21.592v-3.063h-18.145V66.894z M94.983,52.197h11.347
		v-3.063H80.19v3.063h11.346v30.831h3.447V52.197z M35.092,49.133h-4.309v33.895h3.447V53.873h0.096L54.05,83.028h4.309V49.133
		h-3.447v28.868h-0.096L35.092,49.133z M5.027,49.133H1.58v33.895h3.447V49.133z"/>
</g>
</svg>
